<svg width="600" height="400" viewBox="0 0 600 400" fill="none" xmlns="http://www.w3.org/2000/svg">
  <!-- Background shapes -->
  <rect width="600" height="400" rx="20" fill="#F3F4F6" />
  
  <!-- Decorative elements -->
  <circle cx="150" cy="100" r="50" fill="#3B82F6" opacity="0.1" />
  <circle cx="450" cy="300" r="70" fill="#10B981" opacity="0.1" />
  <circle cx="500" cy="80" r="30" fill="#F59E0B" opacity="0.2" />
  
  <!-- Website mockup -->
  <rect x="100" y="50" width="400" height="300" rx="8" fill="white" stroke="#E5E7EB" stroke-width="2" />
  
  <!-- Browser header -->
  <rect x="100" y="50" width="400" height="40" rx="8 8 0 0" fill="#F9FAFB" stroke="#E5E7EB" stroke-width="2" />
  <circle cx="125" cy="70" r="8" fill="#EF4444" />
  <circle cx="150" cy="70" r="8" fill="#F59E0B" />
  <circle cx="175" cy="70" r="8" fill="#10B981" />
  <rect x="200" y="62" width="200" height="16" rx="8" fill="#E5E7EB" />
  
  <!-- Website content -->
  <rect x="120" y="110" width="150" height="20" rx="4" fill="#2563EB" />
  <rect x="120" y="140" width="250" height="10" rx="4" fill="#9CA3AF" />
  <rect x="120" y="160" width="200" height="10" rx="4" fill="#9CA3AF" />
  <rect x="120" y="180" width="220" height="10" rx="4" fill="#9CA3AF" />
  
  <rect x="120" y="210" width="100" height="40" rx="6" fill="#2563EB" />
  <rect x="130" y="225" width="80" height="10" rx="4" fill="white" />
  
  <!-- Image placeholder -->
  <rect x="380" y="110" width="100" height="100" rx="8" fill="#F3F4F6" />
  <path d="M430 135 L450 165 L410 165 Z" fill="#9CA3AF" />
  <circle cx="415" cy="125" r="8" fill="#9CA3AF" />
  
  <!-- Menu items -->
  <rect x="120" y="280" width="80" height="10" rx="4" fill="#4B5563" />
  <rect x="220" y="280" width="80" height="10" rx="4" fill="#4B5563" />
  <rect x="320" y="280" width="80" height="10" rx="4" fill="#4B5563" />
  <rect x="420" y="280" width="60" height="10" rx="4" fill="#4B5563" />
  
  <!-- Code elements -->
  <rect x="380" y="230" width="100" height="30" rx="4" fill="#F3F4F6" />
  <rect x="390" y="240" width="20" height="10" rx="2" fill="#2563EB" />
  <rect x="420" y="240" width="30" height="10" rx="2" fill="#4B5563" />
  <rect x="460" y="240" width="10" height="10" rx="2" fill="#10B981" />
</svg>
