<svg width="160" height="40" viewBox="0 0 160 40" fill="none" xmlns="http://www.w3.org/2000/svg">
  <path d="M10 8H5V32H10V8Z" fill="#2563EB"/>
  <path d="M20 8L12 20L20 32H26L18 20L26 8H20Z" fill="#2563EB"/>
  <path d="M35 8H30V32H35V22H45V32H50V8H45V17H35V8Z" fill="#2563EB"/>
  <path d="M60 8H55V32H60V8Z" fill="#2563EB"/>
  <path d="M75 8C70.5817 8 67 11.5817 67 16V24C67 28.4183 70.5817 32 75 32H80C84.4183 32 88 28.4183 88 24V16C88 11.5817 84.4183 8 80 8H75ZM75 13H80C81.6569 13 83 14.3431 83 16V24C83 25.6569 81.6569 27 80 27H75C73.3431 27 72 25.6569 72 24V16C72 14.3431 73.3431 13 75 13Z" fill="#2563EB"/>
  <path d="M100 8H95V32H100V22L110 32H116L104 20L116 8H110L100 18V8Z" fill="#10B981"/>
  <path d="M125 8H120V32H125V8Z" fill="#10B981"/>
  <path d="M135 8C130.582 8 127 11.5817 127 16V24C127 28.4183 130.582 32 135 32H140C144.418 32 148 28.4183 148 24V16C148 11.5817 144.418 8 140 8H135ZM135 13H140C141.657 13 143 14.3431 143 16V24C143 25.6569 141.657 27 140 27H135C133.343 27 132 25.6569 132 24V16C132 14.3431 133.343 13 135 13Z" fill="#10B981"/>
  <path d="M155 8H150V32H155V8Z" fill="#10B981"/>
</svg>
